<svg width="26" height="27" viewBox="0 0 26 27" fill="none" xmlns="http://www.w3.org/2000/svg">
<g id="dashicons:google">
<path id="Vector" fill-rule="evenodd" clip-rule="evenodd" d="M22.7103 11.4761H13.2315V15.2676H18.7924C18.2868 17.9217 15.8855 19.6911 13.2315 19.5647C9.94546 19.4383 7.41776 16.9106 7.29138 13.6246C7.16499 10.2123 9.81907 7.30542 13.2315 7.17903C14.6217 7.17903 16.0119 7.68457 17.1494 8.69565L20.0562 5.91519C18.2868 4.1458 15.7592 3.26111 13.3578 3.26111C7.79692 3.26111 3.24707 7.81096 3.24707 13.3719C3.24707 18.9328 7.79692 23.4827 13.3578 23.4827C19.1715 23.4827 23.0895 19.4383 23.0895 13.6246C22.9631 12.8663 22.9631 12.2344 22.7103 11.4761Z" fill="#127B7E"/>
</g>
</svg>
