<svg width="650" height="363" viewBox="0 0 650 363" fill="none" xmlns="http://www.w3.org/2000/svg">
<path d="M288.889 347.98V173.99C288.889 77.8979 366.787 0 462.879 0H476.01C572.102 0 650 77.898 650 173.99C650 270.082 572.102 347.98 476.01 347.98H288.889Z" fill="#127B7E"/>
<path d="M311.869 325.004V180.56C311.869 93.533 382.418 22.9838 469.445 22.9838H476.01C559.411 22.9838 627.021 90.5934 627.021 173.994C627.021 257.395 559.411 325.004 476.01 325.004H311.869Z" stroke="white" stroke-width="6.56566"/>
<path d="M470.803 284.47C451.809 284.47 435.501 281.208 421.879 274.685C408.257 267.97 397.129 259.241 388.495 248.496C379.862 237.56 373.434 225.857 369.213 213.386C365.184 200.723 363.17 188.444 363.17 176.549V170.218C363.17 157.171 365.28 144.316 369.501 131.654C373.722 118.799 380.149 107.192 388.783 96.8311C397.609 86.4707 408.641 78.2207 421.879 72.0812C435.309 65.7498 451.138 62.5841 469.364 62.5841C488.358 62.5841 505.146 66.1335 519.728 73.2324C534.309 80.3312 545.916 90.212 554.55 102.875C563.376 115.346 568.556 130.023 570.091 146.907H522.605C521.262 138.465 518.193 131.27 513.396 125.322C508.6 119.375 502.364 114.77 494.69 111.508C487.207 108.247 478.765 106.616 469.364 106.616C459.963 106.616 451.617 108.247 444.327 111.508C437.036 114.77 430.896 119.375 425.908 125.322C421.112 131.27 417.37 138.369 414.684 146.619C412.19 154.677 410.943 163.694 410.943 173.671C410.943 183.456 412.19 192.473 414.684 200.723C417.37 208.781 421.207 215.88 426.196 222.02C431.376 227.967 437.707 232.572 445.19 235.834C452.673 238.903 461.21 240.438 470.803 240.438C485.385 240.438 497.664 236.889 507.64 229.79C517.809 222.691 523.948 212.906 526.059 200.435H573.256C571.53 215.784 566.349 229.886 557.716 242.741C549.274 255.403 537.666 265.572 522.893 273.246C508.312 280.729 490.949 284.47 470.803 284.47Z" fill="white"/>
<path d="M65.0405 218.854V177.988H102.741C110.032 177.988 116.267 176.549 121.447 173.671C126.819 170.793 130.944 166.764 133.822 161.584C136.7 156.212 138.139 150.072 138.139 143.165C138.139 135.874 136.7 129.639 133.822 124.459C130.944 119.087 126.819 115.058 121.447 112.372C116.267 109.494 110.032 108.055 102.741 108.055H65.0405V67.1885H100.439C118.282 67.1885 133.534 70.1624 146.197 76.11C159.052 82.0577 168.837 90.4995 175.552 101.436C182.459 112.372 185.912 125.514 185.912 140.863V145.467C185.912 160.432 182.459 173.479 175.552 184.607C168.837 195.543 159.052 203.985 146.197 209.932C133.534 215.88 118.282 218.854 100.439 218.854H65.0405ZM23.5988 279.002V67.1885H70.7963V279.002H23.5988ZM216.128 279.002V68.9153H263.325V279.002H216.128Z" fill="#127B7E"/>
<path d="M27.9925 319.06V316.311H31.1652C31.8057 316.311 32.342 316.185 32.7739 315.932C33.2208 315.678 33.556 315.328 33.7794 314.881C34.0177 314.435 34.1369 313.921 34.1369 313.34C34.1369 312.759 34.0177 312.245 33.7794 311.798C33.556 311.351 33.2208 311.009 32.7739 310.77C32.342 310.517 31.8057 310.39 31.1652 310.39H27.9925V307.642H30.8971C32.2675 307.642 33.4293 307.866 34.3827 308.312C35.3509 308.759 36.0882 309.4 36.5946 310.234C37.1011 311.053 37.3543 312.029 37.3543 313.161V313.518C37.3543 314.65 37.1011 315.634 36.5946 316.468C36.0882 317.287 35.3509 317.928 34.3827 318.389C33.4293 318.836 32.2675 319.06 30.8971 319.06H27.9925ZM25.2666 324.064V307.642H28.4393V324.064H25.2666ZM40.3954 324.064V311.932H43.5012V324.064H40.3954ZM38.6973 314.256V311.932H43.5012V314.256H38.6973ZM41.5349 310.48C40.9242 310.48 40.4699 310.323 40.172 310.011C39.889 309.683 39.7475 309.281 39.7475 308.804C39.7475 308.298 39.889 307.888 40.172 307.575C40.4699 307.262 40.9242 307.106 41.5349 307.106C42.1457 307.106 42.5925 307.262 42.8755 307.575C43.1586 307.888 43.3001 308.298 43.3001 308.804C43.3001 309.281 43.1586 309.683 42.8755 310.011C42.5925 310.323 42.1457 310.48 41.5349 310.48ZM52.3534 324.221C51.2363 324.221 50.3128 324.079 49.5829 323.796C48.8679 323.498 48.3317 323.007 47.9742 322.322C47.6167 321.622 47.4379 320.683 47.4379 319.506L47.4603 308.514H50.3649L50.3426 319.708C50.3426 320.303 50.499 320.765 50.8118 321.093C51.1395 321.406 51.6012 321.562 52.197 321.562H54.0962V324.221H52.3534ZM45.5164 314.211V311.932H54.0962V314.211H45.5164ZM62.0221 324.489C60.9646 324.489 60.0485 324.31 59.2739 323.953C58.5143 323.595 57.8737 323.119 57.3524 322.523C56.846 321.927 56.4661 321.257 56.2129 320.512C55.9597 319.767 55.8331 319.007 55.8331 318.233V317.808C55.8331 316.989 55.9597 316.207 56.2129 315.462C56.481 314.703 56.8757 314.032 57.3971 313.451C57.9184 312.856 58.5589 312.386 59.3186 312.044C60.0932 311.686 60.9869 311.508 61.9998 311.508C63.0574 311.508 64.0033 311.716 64.8374 312.133C65.6715 312.535 66.3344 313.101 66.826 313.831C67.3324 314.561 67.6154 315.41 67.675 316.378H64.6587C64.5842 315.753 64.3161 315.231 63.8543 314.814C63.4074 314.397 62.7893 314.189 61.9998 314.189C61.3146 314.189 60.7411 314.353 60.2794 314.68C59.8325 315.008 59.4974 315.462 59.2739 316.043C59.0505 316.609 58.9388 317.265 58.9388 318.009C58.9388 318.724 59.043 319.372 59.2516 319.953C59.475 320.534 59.8102 320.989 60.257 321.316C60.7188 321.644 61.3072 321.808 62.0221 321.808C62.5584 321.808 63.0201 321.711 63.4074 321.517C63.7947 321.324 64.1001 321.056 64.3235 320.713C64.5618 320.37 64.7108 319.983 64.7704 319.551H67.7867C67.7271 320.534 67.4367 321.398 66.9153 322.143C66.4089 322.873 65.7311 323.446 64.8821 323.863C64.0479 324.28 63.0946 324.489 62.0221 324.489ZM70.2747 324.064V307.754H73.3804V317.272H72.8441C72.8441 316.051 73.0005 315.015 73.3134 314.166C73.6262 313.317 74.0879 312.669 74.6986 312.223C75.3242 311.776 76.1137 311.552 77.067 311.552H77.2011C78.5864 311.552 79.6365 312.029 80.3515 312.982C81.0665 313.936 81.424 315.321 81.424 317.138V324.064H78.3182V316.848C78.3182 316.073 78.0948 315.462 77.6479 315.015C77.216 314.569 76.6425 314.345 75.9275 314.345C75.1678 314.345 74.5497 314.598 74.073 315.105C73.6113 315.596 73.3804 316.244 73.3804 317.049V324.064H70.2747ZM90.6798 328.533V307.754L93.3387 307.732V328.511L90.6798 328.533ZM103.076 324.064V307.754H106.249V324.064H103.076ZM115.101 324.467C114.252 324.467 113.47 324.31 112.755 323.997C112.04 323.685 111.422 323.245 110.9 322.679C110.379 322.113 109.977 321.458 109.694 320.713C109.411 319.953 109.269 319.134 109.269 318.255V317.786C109.269 316.922 109.403 316.11 109.671 315.351C109.954 314.591 110.342 313.928 110.833 313.362C111.34 312.796 111.943 312.357 112.643 312.044C113.358 311.716 114.148 311.552 115.011 311.552C115.965 311.552 116.799 311.761 117.514 312.178C118.244 312.58 118.825 313.191 119.257 314.01C119.689 314.829 119.927 315.857 119.972 317.093L119.056 316.021V307.754H122.161V324.064H119.704V318.903H120.24C120.195 320.139 119.942 321.175 119.48 322.009C119.018 322.828 118.408 323.446 117.648 323.863C116.903 324.266 116.054 324.467 115.101 324.467ZM115.793 321.852C116.404 321.852 116.963 321.718 117.469 321.45C117.976 321.167 118.378 320.765 118.676 320.244C118.989 319.708 119.145 319.082 119.145 318.367V317.473C119.145 316.758 118.989 316.162 118.676 315.686C118.363 315.194 117.953 314.822 117.447 314.569C116.94 314.3 116.389 314.166 115.793 314.166C115.123 314.166 114.527 314.33 114.006 314.658C113.5 314.971 113.097 315.418 112.799 315.999C112.516 316.579 112.375 317.257 112.375 318.032C112.375 318.806 112.524 319.484 112.822 320.065C113.12 320.631 113.522 321.07 114.028 321.383C114.55 321.696 115.138 321.852 115.793 321.852ZM131.126 324.489C130.083 324.489 129.167 324.31 128.378 323.953C127.603 323.595 126.955 323.119 126.434 322.523C125.927 321.912 125.54 321.234 125.272 320.49C125.019 319.745 124.892 318.985 124.892 318.211V317.786C124.892 316.982 125.019 316.207 125.272 315.462C125.54 314.703 125.927 314.032 126.434 313.451C126.955 312.856 127.596 312.386 128.355 312.044C129.115 311.686 129.994 311.508 130.992 311.508C132.303 311.508 133.397 311.798 134.276 312.379C135.17 312.945 135.84 313.697 136.287 314.636C136.734 315.559 136.957 316.557 136.957 317.63V318.747H126.21V316.848H135.014L134.053 317.786C134.053 317.011 133.941 316.349 133.718 315.797C133.494 315.246 133.152 314.822 132.69 314.524C132.243 314.226 131.677 314.077 130.992 314.077C130.307 314.077 129.726 314.233 129.249 314.546C128.772 314.859 128.407 315.313 128.154 315.909C127.916 316.49 127.797 317.19 127.797 318.009C127.797 318.769 127.916 319.447 128.154 320.043C128.393 320.624 128.757 321.085 129.249 321.428C129.741 321.756 130.366 321.919 131.126 321.919C131.886 321.919 132.504 321.771 132.98 321.473C133.457 321.16 133.762 320.78 133.896 320.333H136.756C136.578 321.167 136.235 321.897 135.729 322.523C135.222 323.148 134.574 323.632 133.785 323.975C133.01 324.318 132.124 324.489 131.126 324.489ZM146.903 324.064V320.467H146.389V316.468C146.389 315.768 146.218 315.246 145.875 314.904C145.532 314.561 145.004 314.39 144.289 314.39C143.916 314.39 143.469 314.397 142.948 314.412C142.427 314.427 141.898 314.449 141.362 314.479C140.84 314.494 140.371 314.516 139.954 314.546V311.91C140.297 311.88 140.684 311.85 141.116 311.82C141.548 311.791 141.987 311.776 142.434 311.776C142.896 311.761 143.328 311.753 143.73 311.753C144.981 311.753 146.017 311.917 146.836 312.245C147.67 312.573 148.296 313.086 148.713 313.787C149.145 314.487 149.361 315.403 149.361 316.535V324.064H146.903ZM142.993 324.377C142.114 324.377 141.339 324.221 140.669 323.908C140.014 323.595 139.5 323.148 139.127 322.567C138.77 321.987 138.591 321.286 138.591 320.467C138.591 319.573 138.807 318.844 139.239 318.278C139.686 317.712 140.304 317.287 141.094 317.004C141.898 316.721 142.836 316.579 143.909 316.579H146.724V318.434H143.864C143.149 318.434 142.598 318.613 142.211 318.97C141.838 319.313 141.652 319.76 141.652 320.311C141.652 320.862 141.838 321.309 142.211 321.651C142.598 321.994 143.149 322.165 143.864 322.165C144.296 322.165 144.691 322.091 145.048 321.942C145.421 321.778 145.726 321.51 145.964 321.137C146.218 320.75 146.359 320.229 146.389 319.573L147.149 320.445C147.074 321.294 146.866 322.009 146.523 322.59C146.195 323.171 145.734 323.618 145.138 323.93C144.557 324.228 143.842 324.377 142.993 324.377ZM157.96 324.221C156.843 324.221 155.92 324.079 155.19 323.796C154.475 323.498 153.939 323.007 153.581 322.322C153.224 321.622 153.045 320.683 153.045 319.506L153.067 308.514H155.972L155.949 319.708C155.949 320.303 156.106 320.765 156.419 321.093C156.746 321.406 157.208 321.562 157.804 321.562H159.703V324.221H157.96ZM151.123 314.211V311.932H159.703V314.211H151.123ZM167.674 324.489C166.631 324.489 165.715 324.31 164.925 323.953C164.151 323.595 163.503 323.119 162.982 322.523C162.475 321.912 162.088 321.234 161.82 320.49C161.567 319.745 161.44 318.985 161.44 318.211V317.786C161.44 316.982 161.567 316.207 161.82 315.462C162.088 314.703 162.475 314.032 162.982 313.451C163.503 312.856 164.143 312.386 164.903 312.044C165.663 311.686 166.542 311.508 167.54 311.508C168.85 311.508 169.945 311.798 170.824 312.379C171.718 312.945 172.388 313.697 172.835 314.636C173.282 315.559 173.505 316.557 173.505 317.63V318.747H162.758V316.848H171.561L170.601 317.786C170.601 317.011 170.489 316.349 170.266 315.797C170.042 315.246 169.699 314.822 169.238 314.524C168.791 314.226 168.225 314.077 167.54 314.077C166.854 314.077 166.274 314.233 165.797 314.546C165.32 314.859 164.955 315.313 164.702 315.909C164.464 316.49 164.345 317.19 164.345 318.009C164.345 318.769 164.464 319.447 164.702 320.043C164.94 320.624 165.305 321.085 165.797 321.428C166.288 321.756 166.914 321.919 167.674 321.919C168.433 321.919 169.052 321.771 169.528 321.473C170.005 321.16 170.31 320.78 170.444 320.333H173.304C173.125 321.167 172.783 321.897 172.276 322.523C171.77 323.148 171.122 323.632 170.333 323.975C169.558 324.318 168.672 324.489 167.674 324.489ZM182.017 328.533V307.754L184.676 307.732V328.511L182.017 328.533ZM201.719 324.489C200.245 324.489 198.979 324.228 197.921 323.707C196.863 323.186 196 322.508 195.329 321.674C194.674 320.84 194.19 319.931 193.877 318.948C193.564 317.965 193.408 317.019 193.408 316.11V315.619C193.408 314.606 193.564 313.608 193.877 312.625C194.205 311.642 194.704 310.748 195.374 309.944C196.044 309.139 196.893 308.499 197.921 308.022C198.964 307.53 200.193 307.285 201.608 307.285C203.082 307.285 204.363 307.553 205.451 308.089C206.553 308.61 207.432 309.355 208.087 310.323C208.743 311.277 209.137 312.394 209.271 313.675H206.076C205.957 312.93 205.689 312.304 205.272 311.798C204.87 311.277 204.356 310.889 203.73 310.636C203.105 310.368 202.397 310.234 201.608 310.234C200.803 310.234 200.088 310.375 199.463 310.658C198.837 310.927 198.316 311.314 197.899 311.82C197.482 312.327 197.161 312.923 196.938 313.608C196.729 314.293 196.625 315.053 196.625 315.887C196.625 316.691 196.729 317.436 196.938 318.121C197.161 318.806 197.489 319.41 197.921 319.931C198.353 320.437 198.882 320.832 199.507 321.115C200.148 321.398 200.885 321.54 201.719 321.54C202.941 321.54 203.969 321.242 204.803 320.646C205.652 320.035 206.166 319.186 206.344 318.099H209.54C209.391 319.261 208.996 320.326 208.355 321.294C207.715 322.262 206.836 323.037 205.719 323.618C204.602 324.199 203.269 324.489 201.719 324.489ZM217.803 324.489C216.73 324.489 215.784 324.318 214.965 323.975C214.146 323.632 213.453 323.171 212.887 322.59C212.321 321.994 211.889 321.324 211.591 320.579C211.308 319.834 211.167 319.06 211.167 318.255V317.786C211.167 316.952 211.316 316.162 211.614 315.418C211.926 314.658 212.366 313.988 212.932 313.407C213.513 312.811 214.213 312.349 215.032 312.021C215.851 311.679 216.775 311.508 217.803 311.508C218.831 311.508 219.754 311.679 220.573 312.021C221.393 312.349 222.085 312.811 222.651 313.407C223.232 313.988 223.672 314.658 223.969 315.418C224.267 316.162 224.416 316.952 224.416 317.786V318.255C224.416 319.06 224.267 319.834 223.969 320.579C223.686 321.324 223.262 321.994 222.696 322.59C222.13 323.171 221.437 323.632 220.618 323.975C219.799 324.318 218.86 324.489 217.803 324.489ZM217.803 321.83C218.562 321.83 219.203 321.666 219.724 321.339C220.246 320.996 220.64 320.542 220.908 319.976C221.177 319.395 221.311 318.739 221.311 318.009C221.311 317.265 221.169 316.609 220.886 316.043C220.618 315.462 220.216 315.008 219.68 314.68C219.158 314.338 218.533 314.166 217.803 314.166C217.073 314.166 216.44 314.338 215.904 314.68C215.382 315.008 214.98 315.462 214.697 316.043C214.414 316.609 214.272 317.265 214.272 318.009C214.272 318.739 214.407 319.395 214.675 319.976C214.958 320.542 215.36 320.996 215.881 321.339C216.403 321.666 217.043 321.83 217.803 321.83ZM227.292 324.064V307.754H230.398V324.064H227.292ZM225.773 310.078V307.754H230.398V310.078H225.773ZM234.1 324.064V307.754H237.206V324.064H234.1ZM232.581 310.078V307.754H237.206V310.078H232.581ZM248.102 324.064V320.467H247.588V316.468C247.588 315.768 247.417 315.246 247.074 314.904C246.732 314.561 246.203 314.39 245.488 314.39C245.116 314.39 244.669 314.397 244.147 314.412C243.626 314.427 243.097 314.449 242.561 314.479C242.04 314.494 241.57 314.516 241.153 314.546V311.91C241.496 311.88 241.883 311.85 242.315 311.82C242.747 311.791 243.187 311.776 243.633 311.776C244.095 311.761 244.527 311.753 244.929 311.753C246.181 311.753 247.216 311.917 248.035 312.245C248.869 312.573 249.495 313.086 249.912 313.787C250.344 314.487 250.56 315.403 250.56 316.535V324.064H248.102ZM244.192 324.377C243.313 324.377 242.539 324.221 241.868 323.908C241.213 323.595 240.699 323.148 240.327 322.567C239.969 321.987 239.79 321.286 239.79 320.467C239.79 319.573 240.006 318.844 240.438 318.278C240.885 317.712 241.503 317.287 242.293 317.004C243.097 316.721 244.036 316.579 245.108 316.579H247.923V318.434H245.063C244.348 318.434 243.797 318.613 243.41 318.97C243.038 319.313 242.851 319.76 242.851 320.311C242.851 320.862 243.038 321.309 243.41 321.651C243.797 321.994 244.348 322.165 245.063 322.165C245.495 322.165 245.89 322.091 246.248 321.942C246.62 321.778 246.925 321.51 247.164 321.137C247.417 320.75 247.558 320.229 247.588 319.573L248.348 320.445C248.273 321.294 248.065 322.009 247.722 322.59C247.395 323.171 246.933 323.618 246.337 323.93C245.756 324.228 245.041 324.377 244.192 324.377ZM261.014 324.467C260.016 324.467 259.137 324.258 258.378 323.841C257.618 323.409 257.022 322.783 256.59 321.964C256.158 321.145 255.92 320.154 255.875 318.993H256.344V324.064H253.887V307.754H256.992V315.909L256.166 317.183C256.225 315.932 256.471 314.889 256.903 314.055C257.35 313.221 257.946 312.595 258.69 312.178C259.435 311.761 260.277 311.552 261.215 311.552C262.049 311.552 262.809 311.709 263.494 312.021C264.179 312.334 264.768 312.774 265.259 313.34C265.751 313.891 266.123 314.539 266.376 315.284C266.645 316.028 266.779 316.84 266.779 317.719V318.188C266.779 319.067 266.645 319.886 266.376 320.646C266.108 321.406 265.721 322.076 265.215 322.657C264.708 323.223 264.097 323.67 263.382 323.997C262.682 324.31 261.893 324.467 261.014 324.467ZM260.321 321.852C260.992 321.852 261.573 321.689 262.064 321.361C262.571 321.018 262.965 320.557 263.248 319.976C263.531 319.395 263.673 318.724 263.673 317.965C263.673 317.19 263.531 316.52 263.248 315.954C262.965 315.388 262.571 314.948 262.064 314.636C261.573 314.323 260.992 314.166 260.321 314.166C259.711 314.166 259.145 314.3 258.623 314.569C258.117 314.837 257.7 315.231 257.372 315.753C257.059 316.274 256.903 316.9 256.903 317.63V318.523C256.903 319.223 257.067 319.819 257.394 320.311C257.722 320.802 258.147 321.182 258.668 321.45C259.189 321.718 259.741 321.852 260.321 321.852Z" fill="#127B7E"/>
</svg>
